<svg id="Layer_1" data-name="Layer 1" xmlns="http://www.w3.org/2000/svg" viewBox="0 0 481.46 64.85"><defs><style>.cls-1{fill:#fff;}</style></defs><path class="cls-1" d="M183.22,61.73l-.06-30.16-14.95,25h-3.77L149.49,32V61.73h-8.06V16.23h6.95l18.07,30.16L184.2,16.23h7l.07,45.5Z" transform="translate(-17.53 -9.49)"/><path class="cls-1" d="M231.78,41.39V61.73h-7.67V57.51c-2,3-5.72,4.68-10.92,4.68-7.93,0-12.94-4.36-12.94-10.4,0-5.79,3.9-10.34,14.43-10.34h9v-.52c0-4.74-2.86-7.54-8.64-7.54a17.16,17.16,0,0,0-10.53,3.45l-3.19-5.92c3.71-2.86,9.1-4.29,14.69-4.29C226,26.63,231.78,31.38,231.78,41.39Zm-8.13,9.49v-4h-8.38c-5.53,0-7,2.08-7,4.61,0,2.93,2.47,4.81,6.63,4.81C218.84,56.27,222.29,54.45,223.65,50.88Z" transform="translate(-17.53 -9.49)"/><path class="cls-1" d="M262.26,26.63v7.74a10.3,10.3,0,0,0-1.88-.2c-6.18,0-10.08,3.64-10.08,10.73V61.73h-8.12V27h7.73v5.07C252.25,28.45,256.48,26.63,262.26,26.63Z" transform="translate(-17.53 -9.49)"/><path class="cls-1" d="M268.05,16.43a5,5,0,0,1,5.2-4.88c3,0,5.2,2,5.2,4.68a5.21,5.21,0,0,1-10.4.2ZM269.15,27h8.13V61.73h-8.13Z" transform="translate(-17.53 -9.49)"/><path class="cls-1" d="M322.13,41.84V61.73H314V42.88c0-6.17-3.05-9.16-8.25-9.16-5.79,0-9.69,3.51-9.69,10.46V61.73h-8.12V27h7.73v4.49c2.67-3.19,6.89-4.88,12-4.88C316,26.63,322.13,31.38,322.13,41.84Z" transform="translate(-17.53 -9.49)"/><path class="cls-1" d="M365.29,47H338.05c1,5.07,5.2,8.32,11.24,8.32a12.45,12.45,0,0,0,9.43-3.77l4.36,5c-3.12,3.71-8,5.66-14,5.66-11.64,0-19.18-7.48-19.18-17.81s7.61-17.75,17.95-17.75c10.13,0,17.55,7.09,17.55,17.94C365.42,45.22,365.35,46.2,365.29,47ZM338,41.58h19.7a9.45,9.45,0,0,0-9.81-8.45A9.6,9.6,0,0,0,338,41.58Z" transform="translate(-17.53 -9.49)"/><path class="cls-1" d="M370.74,39c0-13.45,10.4-23.4,24.51-23.4s24.51,9.88,24.51,23.4-10.4,23.4-24.51,23.4S370.74,52.44,370.74,39Zm40.5,0a16,16,0,0,0-32,0c0,9.3,6.82,16,16,16S411.24,48.28,411.24,39Z" transform="translate(-17.53 -9.49)"/><path class="cls-1" d="M464.8,44.38c0,10.79-7.48,17.81-17.62,17.81a14.26,14.26,0,0,1-11.11-4.68V74.34h-8.13V27h7.74v4.55c2.73-3.31,6.76-4.94,11.5-4.94C457.32,26.63,464.8,33.65,464.8,44.38Zm-8.26,0c0-6.63-4.42-10.86-10.27-10.86s-10.33,4.23-10.33,10.86,4.48,10.85,10.33,10.85S456.54,51,456.54,44.38Z" transform="translate(-17.53 -9.49)"/><path class="cls-1" d="M468.57,58.29l3.12-6.18a23.28,23.28,0,0,0,12.09,3.45c5.13,0,7.28-1.43,7.28-3.84,0-6.63-21.45-.39-21.45-14.23,0-6.57,5.91-10.86,15.27-10.86,4.62,0,9.88,1.11,13,3l-3.12,6.18a19,19,0,0,0-9.94-2.6c-4.94,0-7.28,1.62-7.28,3.9,0,7,21.45.78,21.45,14.36,0,6.5-6,10.73-15.73,10.73C477.47,62.19,471.69,60.5,468.57,58.29Z" transform="translate(-17.53 -9.49)"/><path class="cls-1" d="M43.46,66h64.65C111,66,114.6,58.19,102,52.5c-18.59-8.1,15.71-41.07,15.71-41.07S85.61,4.9,71.32,15.84,68.11,48.93,27.39,54.29" transform="translate(-17.53 -9.49)"/><path class="cls-1" d="M17.57,43.6c-.72-.05,8,9,8.52,9s19.74-.17,30.46-12.26" transform="translate(-17.53 -9.49)"/></svg>